# xmcd
#
# Track frame offsets:
#	150
#	8140
#	19217
#	30357
#	41087
#	59752
#	68657
#	75527
#	98177
#	112060
#	125450
#	136727
#	148207
#	159845
#	170497
#	185780
#
# Disc length: 2581 seconds
#
# Revision: 0
# Processed by: cddbd v1.5.1PL0 Copyright (c) Steve Scherf et al.
# Submitted via: EasyCDDAExtractor 8.0.2.1
#
DISCID=da0a1310
DTITLE=Weekend Warriors - Rambling 'Round
DYEAR=1994
DGENRE=Rock and Roll
TTITLE0=Yakety Yak
TTITLE1=Penalty Of Love
TTITLE2=Chick-A-Boom
TTITLE3=Rub It In
TTITLE4=I Said So
TTITLE5=At My Front Door
TTITLE6=Beat For The Body
TTITLE7=I Was Wrong
TTITLE8=Rambling 'round
TTITLE9=Just Like Me
TTITLE10=Bad Blood
TTITLE11=Whip It On Me
TTITLE12=Wait A Minute
TTITLE13=As Long As I'm Moving
TTITLE14=I Saw The Light
TTITLE15=Automobiles
EXTD=
EXTT0=
EXTT1=
EXTT2=
EXTT3=
EXTT4=
EXTT5=
EXTT6=
EXTT7=
EXTT8=
EXTT9=
EXTT10=
EXTT11=
EXTT12=
EXTT13=
EXTT14=
EXTT15=
PLAYORDER=
